<svg xmlns="http://www.w3.org/2000/svg" width="47.046" height="25.484" viewBox="0 0 47.046 25.484"><path d="M15.682,14.8H9.8V8.921H5.881V14.8H0v3.921H5.881V24.6H9.8V18.722h5.881Zm19.6,1.96A5.881,5.881,0,1,0,33.5,5.274a9.673,9.673,0,0,1,1.764,5.606A9.863,9.863,0,0,1,33.5,16.487,5.861,5.861,0,0,0,35.285,16.762Zm-9.8,0A5.881,5.881,0,1,0,19.6,10.881,5.856,5.856,0,0,0,25.484,16.762ZM38.461,21a7.253,7.253,0,0,1,2.705,5.567v3.921h5.881V26.563C47.046,23.544,42.4,21.682,38.461,21Zm-12.977-.314c-3.921,0-11.762,1.96-11.762,5.881v3.921H37.245V26.563C37.245,22.642,29.4,20.682,25.484,20.682Z" transform="translate(0 -5)" fill="#fff"/></svg>