<svg xmlns="http://www.w3.org/2000/svg" width="92.13" height="90" viewBox="0 0 92.13 90"><path d="M94.13,19.176,72.94,1.8,66.952,8.483l21.19,17.376ZM29.178,8.929,23.19,2.246,2,19.176l5.988,6.683L29.178,8.929Zm21.19,20.5h-6.91V56.156L65.109,69.077l3.685-5.347L50.368,53.038ZM48.065,11.6C25.033,11.6,6.607,29.424,6.607,51.7S25.033,91.8,48.065,91.8,89.524,73.978,89.524,51.7,71.1,11.6,48.065,11.6Zm0,71.287C30.1,82.889,15.82,69.077,15.82,51.7S30.1,20.513,48.065,20.513,80.311,34.325,80.311,51.7,66.03,82.889,48.065,82.889Z" transform="translate(-2 -1.8)" fill="gray"/></svg>