<svg xmlns="http://www.w3.org/2000/svg" width="39.827" height="25.344" viewBox="0 0 39.827 25.344"><path d="M28.155,15.862a5.431,5.431,0,1,0-5.431-5.431A5.408,5.408,0,0,0,28.155,15.862Zm-14.482,0a5.431,5.431,0,1,0-5.431-5.431A5.408,5.408,0,0,0,13.672,15.862Zm0,3.621C9.454,19.482,1,21.6,1,25.818v4.526H26.344V25.818C26.344,21.6,17.89,19.482,13.672,19.482Zm14.482,0c-.525,0-1.122.036-1.756.091a7.639,7.639,0,0,1,3.566,6.246v4.526H40.827V25.818C40.827,21.6,32.373,19.482,28.155,19.482Z" transform="translate(-1 -5)" fill="#e9e9e9"/></svg>