<svg xmlns="http://www.w3.org/2000/svg" width="80" height="80" viewBox="0 0 80 80"><defs><style>.a{fill:red;stroke-width:4px;}.a,.c{stroke:#fff;}.b{fill:#fff;}.c,.e{fill:none;}.c{stroke-width:7px;}.d{stroke:none;}</style></defs><g class="a"><circle class="d" cx="40" cy="40" r="40"/><circle class="e" cx="40" cy="40" r="38"/></g><path class="b" d="M12.115,22.616A38.145,38.145,0,0,0,28.709,39.21l5.54-5.54a2.5,2.5,0,0,1,2.568-.6A28.723,28.723,0,0,0,45.807,34.5a2.525,2.525,0,0,1,2.518,2.518v8.788a2.525,2.525,0,0,1-2.518,2.518A42.8,42.8,0,0,1,3,5.518,2.525,2.525,0,0,1,5.518,3h8.813a2.525,2.525,0,0,1,2.518,2.518,28.606,28.606,0,0,0,1.435,8.989,2.527,2.527,0,0,1-.63,2.568Z" transform="translate(14 14)"/><line class="c" x1="55.38" y2="55.88" transform="translate(12.5 11.5)"/></svg>