<svg xmlns="http://www.w3.org/2000/svg" width="66.834" height="56.5" viewBox="0 0 66.834 56.5"><g transform="translate(-2.52 -9.836)"><g transform="translate(2.52 9.836)"><path d="M45.351,53.492c4.291-1.547,6.823-2.462,11.114-4.08,5.7-2.04,4.924-8.089,3.658-14.068s-4.994-22.227-4.994-22.227a2.683,2.683,0,0,0-3.236-1.97,2.63,2.63,0,0,0-1.97,3.236L52.737,26.13a.862.862,0,0,1-.563.985H52.1a.819.819,0,0,1-1.055-.563L46.336,11.71A2.692,2.692,0,0,0,41.2,13.328l4.713,14.842a.819.819,0,0,1-.563,1.055.76.76,0,0,1-.985-.492l-7.175-16.6a2.678,2.678,0,1,0-4.924,2.11l6.964,15.9a.856.856,0,0,1-.492,1.125l-.281.07a.9.9,0,0,1-.985-.352L30.3,18.533a2.678,2.678,0,0,0-4.642,2.673s5.979,10.129,7.1,12.38,1.758,3.517,2.6,5.557c.492,1.125-.211,2.251-1.758,1.547,0,0-3.095-1.829-4.853-2.673-1.688-.774-3.165-.774-4.22.492a2.988,2.988,0,0,0,.633,4.291s8.652,6.893,13.365,9.355C40.709,53.21,43.241,54.265,45.351,53.492Z" transform="translate(-8.859 -9.836)" fill="#158725"/><path d="M71.355,69.678a1.852,1.852,0,0,0-2.392-1.125l-15.686,5.7a1.852,1.852,0,0,0-1.125,2.392l2.11,5.838A1.852,1.852,0,0,0,56.654,83.6l15.686-5.7a1.852,1.852,0,0,0,1.125-2.392Z" transform="translate(-17.207 -27.218)" fill="#158725"/><path d="M79.55,22.123a1.612,1.612,0,0,0-.633,2.181C81.309,28.735,82.364,35,81.872,41.818a1.647,1.647,0,0,0,1.477,1.758h.141a1.621,1.621,0,0,0,1.618-1.547c.492-7.6-.633-14.209-3.376-19.273A1.679,1.679,0,0,0,79.55,22.123Z" transform="translate(-25.121 -13.427)" fill="#158725"/><path d="M91.331,21.55A1.606,1.606,0,1,0,88.517,23.1c2.462,4.642,3.517,11.184,2.884,18.359a1.6,1.6,0,0,0,1.477,1.758h.141a1.612,1.612,0,0,0,1.618-1.477C95.27,33.93,94.074,26.756,91.331,21.55Z" transform="translate(-27.969 -13.065)" fill="#158725"/><path d="M15.478,36.156a1.624,1.624,0,1,0-3.236-.281c-.563,7.6.633,14.279,3.306,19.343a1.547,1.547,0,0,0,1.407.844,1.626,1.626,0,0,0,1.407-2.392C16.041,49.24,14.986,42.979,15.478,36.156Z" transform="translate(-5.363 -17.12)" fill="#158725"/><path d="M5.952,36.156A1.6,1.6,0,0,0,4.475,34.4a1.6,1.6,0,0,0-1.758,1.477c-.7,7.808.492,14.982,3.306,20.187a1.547,1.547,0,0,0,1.407.844,1.626,1.626,0,0,0,1.407-2.392C6.3,49.872,5.319,43.4,5.952,36.156Z" transform="translate(-2.52 -17.12)" fill="#158725"/></g></g></svg>