<svg xmlns="http://www.w3.org/2000/svg" width="150.51" height="94.11" viewBox="0 0 150.51 94.11"><g fill="#e6e6e6"><path d="M 140.2475891113281 92.10958862304688 L 10.26202774047852 92.10958862304688 C 7.967153072357178 92.10958862304688 5.829090595245361 91.42237854003906 4.241652965545654 90.17459106445313 C 2.796111345291138 89.03829956054688 2.000007152557373 87.57102966308594 2.000007152557373 86.04306793212891 L 2.000007152557373 8.066527366638184 C 2.000007152557373 6.53856897354126 2.796111345291138 5.071298122406006 4.241652965545654 3.935006380081177 C 5.829090595245361 2.687193870544434 7.967153072357178 2.000006437301636 10.26202774047852 2.000006437301636 L 140.2475891113281 2.000006437301636 C 142.5424499511719 2.000006437301636 144.6805267333984 2.687193870544434 146.2679443359375 3.935006380081177 C 147.7134857177734 5.071298122406006 148.5095977783203 6.53856897354126 148.5095977783203 8.066527366638184 L 148.5095977783203 86.04306793212891 C 148.5095977783203 87.57102966308594 147.7134857177734 89.03829956054688 146.2679443359375 90.17459106445313 C 144.6805114746094 91.42237854003906 142.5424499511719 92.10958862304688 140.2475891113281 92.10958862304688 Z" stroke="none"/><path d="M 10.26202392578125 4 C 8.440155029296875 4 6.696319580078125 4.549407958984375 5.477615356445313 5.50738525390625 C 4.92578125 5.941162109375 4 6.850456237792969 4 8.0665283203125 L 4 86.04304504394531 C 4 87.25911712646484 4.92578125 88.16841125488281 5.477645874023438 88.60220336914063 C 6.696319580078125 89.56016540527344 8.440155029296875 90.10959625244141 10.26202392578125 90.10959625244141 L 140.2475891113281 90.10959625244141 C 142.0694274902344 90.10959625244141 143.8132781982422 89.56016540527344 145.0319519042969 88.60220336914063 C 145.5838012695313 88.16841125488281 146.5095977783203 87.25911712646484 146.5095977783203 86.04304504394531 L 146.5095977783203 8.0665283203125 C 146.5095977783203 6.850456237792969 145.5838165283203 5.941162109375 145.0319519042969 5.50738525390625 C 143.8132781982422 4.549407958984375 142.0694274902344 4 140.2475891113281 4 L 10.26202392578125 4 M 10.26202392578125 0 L 140.2475891113281 0 C 145.9151153564453 0 150.5095977783203 3.611503601074219 150.5095977783203 8.0665283203125 L 150.5095977783203 86.04304504394531 C 150.5095977783203 90.49806976318359 145.9151153564453 94.10959625244141 140.2475891113281 94.10959625244141 L 10.26202392578125 94.10959625244141 C 4.594451904296875 94.10959625244141 0 90.49806976318359 0 86.04304504394531 L 0 8.0665283203125 C 0 3.611503601074219 4.594451904296875 0 10.26202392578125 0 Z" stroke="none" fill="#bababa"/></g><g transform="translate(32.585 20.306)"><path d="M67.862,27.725v-16.9A4.747,4.747,0,0,0,63.229,6H7.633A4.747,4.747,0,0,0,3,10.828V59.1a4.747,4.747,0,0,0,4.633,4.828h55.6A4.747,4.747,0,0,0,67.862,59.1v-16.9L86.394,61.519V8.414Z" transform="translate(-3 -6)" fill="#19a52d"/></g></svg>