<svg xmlns="http://www.w3.org/2000/svg" width="72.482" height="79.071" viewBox="0 0 72.482 79.071"><path d="M73.482,18.12V65.893A13.217,13.217,0,0,1,60.3,79.071H36.253a13.156,13.156,0,0,1-9.39-3.921L1,48.859s4.151-4.052,4.283-4.118a3.9,3.9,0,0,1,2.6-.955,4.025,4.025,0,0,1,1.977.527c.132.033,14.2,8.1,14.2,8.1V13.179a4.942,4.942,0,0,1,9.884,0V36.241h3.295V4.942a4.942,4.942,0,0,1,9.884,0v31.3h3.295v-28a4.942,4.942,0,0,1,9.884,0v28H63.6V18.12a4.942,4.942,0,1,1,9.884,0Z" transform="translate(-1)" fill="#fff"/></svg>