<svg xmlns="http://www.w3.org/2000/svg" width="65.778" height="90" viewBox="0 0 65.778 90"><path d="M61.556,31H57.444V22.429C57.444,10.6,48.236,1,36.889,1S16.333,10.6,16.333,22.429V31H12.222A8.427,8.427,0,0,0,4,39.571V82.429A8.427,8.427,0,0,0,12.222,91H61.556a8.427,8.427,0,0,0,8.222-8.571V39.571A8.427,8.427,0,0,0,61.556,31ZM36.889,69.571a8.579,8.579,0,0,1,0-17.143,8.579,8.579,0,0,1,0,17.143ZM49.633,31H24.144V22.429A13.035,13.035,0,0,1,36.889,9.143,13.035,13.035,0,0,1,49.633,22.429Z" transform="translate(-4 -1)" fill="gray"/></svg>