<svg xmlns="http://www.w3.org/2000/svg" width="133.929" height="150.504" viewBox="0 0 133.929 150.504"><g transform="translate(-113.071 -480.877)"><g transform="translate(113.071 480.877)"><path d="M286.049,251.052l-.452.972c-.828-1.368-1.986-3.442-3.286-5.77-3.665-6.567-8.685-15.559-13.883-22.575l-.105-.136c-5.168-6.395-10.91-9.5-17.553-9.5a23.946,23.946,0,0,0-6.754,1.029c-7.866,2.319-9.08,7.288-9.236,9.311-.306,3.9,2.7,11.24,10.728,15.041l.007,5.819c3.991-1.071,8.885-3.217,9.277-6.415a6.149,6.149,0,0,0-3.45-6.34c-7.161-3.4-8.474-6.384-8.36-7.466.5-4.826,10.64-6.547,18.889,3.631,4.865,6.582,9.714,15.267,13.258,21.616,1.147,2.054,2.14,3.833,2.964,5.236L254.55,306.3a23.836,23.836,0,0,0-6.395-.912c-1.277,0-2.448.106-3.586.209-1.252.112-2.546.229-4.207.229-1.1,0-2.254-.05-3.518-.154-7.5-.614-19.531-6.465-25.033-9.575-2.718-2-2.969-3.294-2.468-5.945h-8.311c-.458,3.92.22,8.479,6.144,12.746l.178.128.191.108c1.762,1,17.537,9.829,28.628,10.737,1.489.122,2.859.182,4.19.182,2.03,0,3.578-.14,4.956-.263,1.038-.094,1.933-.175,2.838-.175a19.517,19.517,0,0,1,7.128,1.559l.8.319-.421.906,20.461,9.514,30.382-65.344Z" transform="translate(-172.582 -175.408)" fill="#e9e9e9"/><path d="M195.891,211.924V180.808l-2.208-1.553a23.673,23.673,0,0,1-5.949-4.989v28.67H134.944V133.71h52.789v19.271a19.136,19.136,0,0,1,6.983-3.576c.392-.116.784-.221,1.175-.319V124.722a11.753,11.753,0,0,0-11.752-11.752h-45.6a11.753,11.753,0,0,0-11.753,11.752v87.2a11.753,11.753,0,0,0,11.753,11.753h45.6A11.754,11.754,0,0,0,195.891,211.924Zm-45.459-87.641h21.814V128.4H150.432v-4.116Zm10.907,90.344a4.39,4.39,0,1,1,4.39-4.39A4.39,4.39,0,0,1,161.339,214.627Z" transform="translate(-126.787 -112.97)" fill="#e9e9e9"/></g><g transform="translate(119.126 509.218)"><path d="M21.047,0A21.521,21.521,0,0,0,0,21.424,20.641,20.641,0,0,0,20.684,42.483,21.52,21.52,0,0,0,41.73,21.06,20.641,20.641,0,0,0,21.047,0Zm-.023,2.655a18.025,18.025,0,0,1,18.1,18.427A18.792,18.792,0,0,1,20.706,39.828,18.025,18.025,0,0,1,2.609,21.4,18.792,18.792,0,0,1,21.025,2.656ZM14.413,13.333a2.687,2.687,0,0,0-2.631,2.678,2.578,2.578,0,0,0,2.585,2.632A2.688,2.688,0,0,0,17,15.966a2.578,2.578,0,0,0-2.585-2.632Zm13.04-.114A2.687,2.687,0,0,0,24.823,15.9a2.578,2.578,0,0,0,2.585,2.632,2.687,2.687,0,0,0,2.631-2.678,2.578,2.578,0,0,0-2.585-2.632ZM10.41,23.988a10.444,10.444,0,0,0,5.139,9.155,10.274,10.274,0,0,0,10.431-.092,10.876,10.876,0,0,0,5.295-9.245Z" transform="translate(0 15.633) rotate(-22)" fill="#e9e9e9"/></g></g></svg>