<svg xmlns="http://www.w3.org/2000/svg" width="90.162" height="90.162" viewBox="0 0 90.162 90.162"><path d="M20.931,41.587A75.038,75.038,0,0,0,53.575,74.23l10.9-10.9a4.925,4.925,0,0,1,5.052-1.189,56.5,56.5,0,0,0,17.684,2.823,4.968,4.968,0,0,1,4.953,4.953V87.208a4.968,4.968,0,0,1-4.953,4.953A84.2,84.2,0,0,1,3,7.953,4.968,4.968,0,0,1,7.953,3H25.29a4.968,4.968,0,0,1,4.953,4.953,56.273,56.273,0,0,0,2.823,17.684,4.971,4.971,0,0,1-1.238,5.053Z" transform="translate(-2.5 -2.5)" fill="#fff" stroke="#95989a" stroke-width="1"/></svg>