<svg xmlns="http://www.w3.org/2000/svg" width="56" height="28.14" viewBox="0 0 56 28.14"><g transform="translate(-10 -29.9)"><path d="M63.48,42.92a2.51,2.51,0,0,0-2.52,2.52H15.04V32.42a2.52,2.52,0,0,0-5.04,0V56.5a1.5,1.5,0,0,0,1.47,1.54H13.5a1.554,1.554,0,0,0,1.54-1.54V50.48H60.96V56.5a1.541,1.541,0,0,0,1.47,1.54h2.03A1.554,1.554,0,0,0,66,56.5V45.44A2.51,2.51,0,0,0,63.48,42.92Z" transform="translate(0 0)" fill="gray"/><path d="M13.6,29.9Z" transform="translate(-1.08)" fill="gray"/><path d="M21.33,48.96h5.04a2.03,2.03,0,0,0,0-4.06H21.33a2.03,2.03,0,0,0,0,4.06Z" transform="translate(-2.79 -4.5)" fill="gray"/><circle cx="3.71" cy="3.71" r="3.71" transform="translate(18.68 32.42)" fill="gray"/><path d="M66.64,46.44A9.933,9.933,0,0,0,56.7,36.5H39.27A4.287,4.287,0,0,0,35,40.77v5.67Z" transform="translate(-7.5 -1.98)" fill="gray"/></g></svg>