<svg xmlns="http://www.w3.org/2000/svg" width="88" height="88" viewBox="0 0 88 88"><path d="M69,47A22,22,0,0,0,56.778,27.3V38.1L68.756,50.08A20.69,20.69,0,0,0,69,47Zm12.222,0a33.453,33.453,0,0,1-2.64,12.907l7.382,7.382A43,43,0,0,0,91,47,43.983,43.983,0,0,0,56.778,4.124V14.2A34.248,34.248,0,0,1,81.222,47ZM9.209,3,3,9.209,26.124,32.333H3V61.667H22.556L47,86.111v-32.9L67.778,73.987a33.848,33.848,0,0,1-11,5.769V89.827a43.949,43.949,0,0,0,18.04-8.849L84.791,91,91,84.791l-44-44ZM47,7.889,36.782,18.107,47,28.324Z" transform="translate(-3 -3)" fill="gray"/></svg>