<svg xmlns="http://www.w3.org/2000/svg" width="108.466" height="91.695" viewBox="0 0 108.466 91.695"><defs><style>.a{fill:gray;}</style></defs><g transform="translate(-2.52 -9.836)"><g transform="translate(2.52 9.836)"><path class="a" d="M58.719,80.685c6.963-2.511,11.073-4,18.037-6.621C86,70.754,84.746,60.937,82.691,51.233S74.586,15.16,74.586,15.16a4.354,4.354,0,0,0-5.251-3.2,4.268,4.268,0,0,0-3.2,5.251L70.7,36.279a1.4,1.4,0,0,1-.913,1.6h-.114a1.329,1.329,0,0,1-1.712-.913L60.317,12.877A4.369,4.369,0,0,0,51.983,15.5l7.648,24.087a1.329,1.329,0,0,1-.913,1.712,1.234,1.234,0,0,1-1.6-.8L45.476,13.562a4.347,4.347,0,1,0-7.991,3.425l11.3,25.8a1.389,1.389,0,0,1-.8,1.826l-.457.114a1.465,1.465,0,0,1-1.6-.571L34.289,23.95a4.347,4.347,0,0,0-7.534,4.338s9.7,16.438,11.53,20.091,2.854,5.708,4.224,9.018c.8,1.826-.342,3.653-2.854,2.511,0,0-5.023-2.968-7.877-4.338-2.74-1.256-5.137-1.256-6.849.8a4.849,4.849,0,0,0,1.027,6.963S40,74.521,47.645,78.516C51.184,80.229,55.294,81.941,58.719,80.685Z" transform="translate(0.506 -9.836)"/><path class="a" d="M83.387,70.449a3.006,3.006,0,0,0-3.881-1.826L54.049,77.869a3.006,3.006,0,0,0-1.826,3.881l3.425,9.475a3.006,3.006,0,0,0,3.881,1.826l25.457-9.247a3.006,3.006,0,0,0,1.826-3.881Z" transform="translate(4.49 -1.541)"/><path class="a" d="M80.067,22.237a2.617,2.617,0,0,0-1.027,3.539c3.881,7.192,5.594,17.352,4.795,28.425a2.673,2.673,0,0,0,2.4,2.854h.228a2.631,2.631,0,0,0,2.626-2.511c.8-12.329-1.027-23.059-5.479-31.279A2.724,2.724,0,0,0,80.067,22.237Z" transform="translate(8.267 -8.123)"/><path class="a" d="M93.206,22.067a2.606,2.606,0,1,0-4.566,2.511c4,7.534,5.708,18.151,4.68,29.795a2.6,2.6,0,0,0,2.4,2.854h.228a2.616,2.616,0,0,0,2.626-2.4C99.6,42.158,97.658,30.514,93.206,22.067Z" transform="translate(9.626 -8.296)"/><path class="a" d="M17.579,37.255a2.635,2.635,0,0,0-5.251-.457c-.913,12.329,1.027,23.174,5.365,31.393a2.511,2.511,0,0,0,2.283,1.37,2.639,2.639,0,0,0,2.283-3.881C18.492,58.488,16.779,48.328,17.579,37.255Z" transform="translate(-1.163 -6.36)"/><path class="a" d="M8.091,37.255a2.6,2.6,0,0,0-2.4-2.854A2.6,2.6,0,0,0,2.84,36.8C1.7,49.47,3.639,61.113,8.2,69.561a2.511,2.511,0,0,0,2.283,1.37,2.639,2.639,0,0,0,2.283-3.881C8.662,59.515,7.063,49.013,8.091,37.255Z" transform="translate(-2.52 -6.36)"/></g></g></svg>