<svg xmlns="http://www.w3.org/2000/svg" width="45.18" height="38.195" viewBox="0 0 45.18 38.195"><defs><style>.a{fill:#0ad8c5;}</style></defs><g transform="translate(-2.52 -9.836)"><g transform="translate(2.52 9.836)"><path class="a" d="M38.4,39.348c2.9-1.046,4.612-1.664,7.513-2.758,3.852-1.379,3.329-5.468,2.473-9.51s-3.376-15.026-3.376-15.026a1.813,1.813,0,0,0-2.187-1.331A1.778,1.778,0,0,0,41.49,12.91l1.9,7.941a.583.583,0,0,1-.38.666h-.048a.554.554,0,0,1-.713-.38L39.065,11.1A1.82,1.82,0,0,0,35.593,12.2L38.779,22.23a.554.554,0,0,1-.38.713.514.514,0,0,1-.666-.333l-4.85-11.222a1.811,1.811,0,0,0-3.329,1.427l4.707,10.746a.579.579,0,0,1-.333.761l-.19.048a.61.61,0,0,1-.666-.238l-4.85-8.416a1.811,1.811,0,1,0-3.138,1.807s4.042,6.847,4.8,8.369,1.189,2.378,1.759,3.756c.333.761-.143,1.522-1.189,1.046,0,0-2.092-1.236-3.281-1.807-1.141-.523-2.14-.523-2.853.333a2.02,2.02,0,0,0,.428,2.9,82.412,82.412,0,0,0,9.035,6.324C35.261,39.158,36.972,39.871,38.4,39.348Z" transform="translate(-13.73 -9.836)"/><path class="a" d="M65.1,69.276a1.252,1.252,0,0,0-1.617-.761l-10.6,3.852a1.252,1.252,0,0,0-.761,1.617l1.427,3.947a1.252,1.252,0,0,0,1.617.761l10.6-3.852a1.252,1.252,0,0,0,.761-1.617Z" transform="translate(-28.492 -40.573)"/><path class="a" d="M79.282,22.064a1.09,1.09,0,0,0-.428,1.474c1.617,3,2.33,7.228,2,11.84a1.113,1.113,0,0,0,1,1.189h.1a1.1,1.1,0,0,0,1.094-1.046c.333-5.135-.428-9.605-2.282-13.029A1.135,1.135,0,0,0,79.282,22.064Z" transform="translate(-42.487 -16.185)"/><path class="a" d="M90.356,21.282a1.085,1.085,0,1,0-1.9,1.046c1.664,3.138,2.378,7.56,1.95,12.411a1.081,1.081,0,0,0,1,1.189h.1a1.09,1.09,0,0,0,1.094-1C93.019,29.651,92.21,24.8,90.356,21.282Z" transform="translate(-47.522 -15.546)"/><path class="a" d="M14.386,35.585a1.1,1.1,0,0,0-2.187-.19,24.328,24.328,0,0,0,2.235,13.076,1.046,1.046,0,0,0,.951.571,1.1,1.1,0,0,0,.951-1.617A22.7,22.7,0,0,1,14.386,35.585Z" transform="translate(-7.548 -22.716)"/><path class="a" d="M4.84,35.585a1.1,1.1,0,0,0-2.187-.19c-.476,5.278.333,10.128,2.235,13.647a1.046,1.046,0,0,0,.951.571A1.1,1.1,0,0,0,6.79,48C5.078,44.857,4.412,40.482,4.84,35.585Z" transform="translate(-2.52 -22.716)"/></g></g></svg>